<svg xmlns="http://www.w3.org/2000/svg" width="24" height="24" fill="none" viewBox="0 0 24 24">
  <path fill="#F5F5F5" d="M9 10a1 1 0 1 0 0-2 1 1 0 0 0 0 2Z"/>
  <path fill="#F5F5F5" fill-rule="evenodd" d="M5 6.5A1.5 1.5 0 0 1 6.5 5h12A1.5 1.5 0 0 1 20 6.5v12a1.5 1.5 0 0 1-1.5 1.5h-12A1.5 1.5 0 0 1 5 18.5v-12ZM6.5 6a.5.5 0 0 0-.5.5v11.793l6.5-6.5 6.5 6.5V6.5a.5.5 0 0 0-.5-.5h-12Zm6 7.207L18.293 19H6.707l5.793-5.793Z" clip-rule="evenodd"/>
  <path fill="#F5F5F5" d="M9.793 1.308a1 1 0 0 1 1.414 0L13.899 4H7.1l2.692-2.692ZM4 7.101V13.9l-2.692-2.692a1 1 0 0 1 0-1.414L4 7.1ZM12.5 19H8l3.646-3.646a.5.5 0 0 1 .854.353V19Z" opacity=".4"/>
</svg>
