<svg xmlns="http://www.w3.org/2000/svg" width="24" height="24" fill="none" viewBox="0 0 24 24">
  <path fill="#F5F5F5" fill-rule="evenodd" d="m16.854 8.854-6 6a.5.5 0 0 1-.707 0l-3-3 .707-.707 2.646 2.646 5.646-5.647.708.708Z" clip-rule="evenodd"/>
  <path fill="#F5F5F5" fill-rule="evenodd" d="M4 5.5A1.5 1.5 0 0 1 5.5 4h13A1.5 1.5 0 0 1 20 5.5v13a1.5 1.5 0 0 1-1.5 1.5h-13A1.5 1.5 0 0 1 4 18.5v-13ZM5.5 5a.5.5 0 0 0-.5.5v13a.5.5 0 0 0 .5.5h13a.5.5 0 0 0 .5-.5v-13a.5.5 0 0 0-.5-.5h-13Z" clip-rule="evenodd" opacity=".4"/>
</svg>
