<svg xmlns="http://www.w3.org/2000/svg" width="24" height="24" fill="none" viewBox="0 0 24 24">
  <path fill="#F5F5F5" d="M12 6.5a.5.5 0 0 1 .5-.5h2a.5.5 0 0 1 .5.5v4l-3 3v-7Zm-5 11a.5.5 0 0 0 .5.5H10v-.5l-3-3v3Zm8 0a.5.5 0 0 1-.5.5h-2l2.5-2.5v2Zm-5-7a.5.5 0 0 0-.5-.5h-2l2.5 2.5v-2Z" opacity=".4"/>
  <path fill="#F5F5F5" d="M5 12.293V4H4v14.5A1.5 1.5 0 0 0 5.5 20H20v-1H5.5a.5.5 0 0 1-.5-.5v-4.793l1.5-1.5 4.646 4.647a.5.5 0 0 0 .708 0L20 8.707V12h1V7h-5v1h3.293L11.5 15.793l-4.646-4.647a.5.5 0 0 0-.708 0L5 12.293Z"/>
</svg>
