<svg xmlns="http://www.w3.org/2000/svg" width="24" height="24" fill="none" viewBox="0 0 24 24">
  <path fill="#F5F5F5" fill-rule="evenodd" d="M12.5 4a4.5 4.5 0 0 0-2.308 8.364A7.5 7.5 0 0 0 5 19.5a.5.5 0 0 0 .5.5h14a.5.5 0 0 0 .5-.5 7.5 7.5 0 0 0-5.192-7.136A4.5 4.5 0 0 0 12.5 4ZM9 8.5a3.5 3.5 0 1 1 7 0 3.5 3.5 0 0 1-7 0Zm-1.096 6.404A6.5 6.5 0 0 1 18.98 19H6.019a6.5 6.5 0 0 1 1.885-4.096Z" clip-rule="evenodd"/>
  <path fill="#F5F5F5" d="M11.543 6.19a2.5 2.5 0 0 1 .46-.14c.271-.055.497.174.497.45V8a.5.5 0 0 1-.5.5h-1.5c-.276 0-.505-.226-.45-.497a2.508 2.508 0 0 1 .682-1.27c.232-.233.508-.417.811-.543Zm.957 8.31a.466.466 0 0 0-.5-.477 5.503 5.503 0 0 0-4.581 3.372c-.123.297.109.605.43.605H12a.5.5 0 0 0 .5-.5v-3Z" opacity=".4"/>
</svg>
