<svg xmlns="http://www.w3.org/2000/svg" width="24" height="24" fill="none" viewBox="0 0 24 24">
  <path fill="#F5F5F5" d="m9.836 8.836 4.31 4.31a.5.5 0 0 1-.353.854H11.33a.5.5 0 0 1-.46-.303l-1.847-4.31c-.217-.507.424-.94.813-.551Z" opacity=".4"/>
  <path fill="#F5F5F5" fill-rule="evenodd" d="M6 4.707C6 3.817 7.077 3.37 7.707 4L18 14.293c.63.63.184 1.707-.707 1.707h-5.586l-4 4c-.63.63-1.707.184-1.707-.707V4.707ZM17.293 15 7 4.707v14.586l4-4a1 1 0 0 1 .707-.293h5.586Z" clip-rule="evenodd"/>
</svg>
