<svg xmlns="http://www.w3.org/2000/svg" width="24" height="24" fill="none" viewBox="0 0 24 24">
  <path fill="#F5F5F5" d="M6 7.793V6.5a.5.5 0 0 1 .5-.5h1.293a.5.5 0 0 1 .353.854L6.854 8.146A.5.5 0 0 1 6 7.793Z" opacity=".4"/>
  <path fill="#F5F5F5" fill-rule="evenodd" d="M11 5.5A1.5 1.5 0 0 0 9.5 4h-4A1.5 1.5 0 0 0 4 5.5v4A1.5 1.5 0 0 0 5.5 11h4A1.5 1.5 0 0 0 11 9.5v-4ZM9.5 5a.5.5 0 0 1 .5.5v4a.5.5 0 0 1-.5.5h-4a.5.5 0 0 1-.5-.5v-4a.5.5 0 0 1 .5-.5h4Zm9.5.5A1.5 1.5 0 0 0 17.5 4h-4A1.5 1.5 0 0 0 12 5.5v4a1.5 1.5 0 0 0 1.5 1.5h4A1.5 1.5 0 0 0 19 9.5v-4ZM17.5 5a.5.5 0 0 1 .5.5v4a.5.5 0 0 1-.5.5h-4a.5.5 0 0 1-.5-.5v-4a.5.5 0 0 1 .5-.5h4Zm-12 7A1.5 1.5 0 0 0 4 13.5v4A1.5 1.5 0 0 0 5.5 19h4a1.5 1.5 0 0 0 1.5-1.5v-4A1.5 1.5 0 0 0 9.5 12h-4ZM5 13.5a.5.5 0 0 1 .5-.5h4a.5.5 0 0 1 .5.5v4a.5.5 0 0 1-.5.5h-4a.5.5 0 0 1-.5-.5v-4Z" clip-rule="evenodd"/>
  <path fill="#F5F5F5" d="M15 15h-3v1h3v3h1v-3h3v-1h-3v-3h-1v3Z"/>
</svg>
