<svg xmlns="http://www.w3.org/2000/svg" width="16" height="16" fill="none" viewBox="0 0 16 16">
  <path fill="#F5F5F5" fill-rule="evenodd" d="M7.5 2.999h-.384l-.099.37-1.23 4.592c-.832.052-1.59.22-2.203.51-.705.334-1.268.854-1.463 1.579-.168.627-.135 1.265.078 1.795.212.53.62.98 1.207 1.137.586.157 1.165-.028 1.614-.38.45-.353.797-.89.965-1.517l.573-2.139a10.68 10.68 0 0 1 2.489.371c.182.05.362.102.537.158L10.26 12h1.036l-.559-2.083c.849.383 1.559.844 2.077 1.328l.682-.731c-.763-.712-1.833-1.346-3.084-1.81L8.983 3.37l-.1-.37H8.5l-1-.001Zm1.78 5.346a11.802 11.802 0 0 0-2.456-.39L7.884 4h.232l1.165 4.346Zm-5.269 1.03c.398-.187.907-.322 1.5-.387l-.492 1.838c-.118.44-.353.782-.616.989-.263.206-.524.259-.738.201-.214-.057-.414-.233-.538-.543-.125-.31-.157-.725-.04-1.165.093-.347.382-.676.924-.932Z" clip-rule="evenodd"/>
</svg>
