<svg xmlns="http://www.w3.org/2000/svg" width="16" height="16" fill="none" viewBox="0 0 16 16">
  <path fill="#F5F5F5" d="M10.5 6.5a1 1 0 1 0 0-2 1 1 0 0 0 0 2Z"/>
  <path fill="#F5F5F5" fill-rule="evenodd" d="M10 2a4 4 0 0 0-3.849 5.092.09.09 0 0 1 .002.043c0 .004-.002.007-.002.007L3.293 10a1 1 0 0 0-.293.707V12a1 1 0 0 0 1 1h2a1 1 0 0 0 1-1v-1h1a1 1 0 0 0 1-1h1a4 4 0 0 0 0-8ZM7 6a3 3 0 1 1 3 3H9a1 1 0 0 0-1 1H7a1 1 0 0 0-1 1v1H4v-1.293L6.859 7.85c.286-.287.35-.69.254-1.03A3.003 3.003 0 0 1 7 6Z" clip-rule="evenodd"/>
</svg>
