<svg xmlns="http://www.w3.org/2000/svg" width="16" height="16" fill="none" viewBox="0 0 16 16">
  <path fill="#F5F5F5" fill-rule="evenodd" d="M2 2a1 1 0 0 0-1 1v9a1 1 0 0 0 1 1h2.136a4 4 0 0 1 2.828 1.172l.329.328a1 1 0 0 0 1.414 0l.329-.328A4 4 0 0 1 11.864 13H14a1 1 0 0 0 1-1V3a1 1 0 0 0-1-1h-2.136a5 5 0 0 0-3.536 1.464L8 3.793l-.328-.329A5 5 0 0 0 4.136 2H2Zm0 1h2.136a4 4 0 0 1 2.828 1.172l.536.535v8.594A5 5 0 0 0 4.136 12H2V3Zm6.5 10.3a5 5 0 0 1 3.364-1.3H14V3h-2.136a4 4 0 0 0-2.828 1.172l-.536.535v8.594Z" clip-rule="evenodd"/>
</svg>
