<svg xmlns="http://www.w3.org/2000/svg" width="24" height="24" fill="none" viewBox="0 0 24 24">
  <path fill="#F5F5F5" d="M12 9V3h1v6h4.5a1.5 1.5 0 0 1 1.5 1.5V14h-1v-3.5a.5.5 0 0 0-.5-.5h-10a.5.5 0 0 0-.5.5V14H6v-3.5A1.5 1.5 0 0 1 7.5 9H12Zm4.354 11.354 2.146-2.147 2.146 2.147.708-.708-2.147-2.146 2.147-2.146-.708-.708-2.146 2.147-2.146-2.147-.708.708 2.147 2.146-2.147 2.146.708.708Z"/>
  <path fill="#F5F5F5" fill-rule="evenodd" d="M6.5 20a2.5 2.5 0 1 0 0-5 2.5 2.5 0 0 0 0 5ZM8 17.5a1.5 1.5 0 1 1-3 0 1.5 1.5 0 0 1 3 0Z" clip-rule="evenodd"/>
</svg>
