<svg xmlns="http://www.w3.org/2000/svg" width="24" height="24" fill="none" viewBox="0 0 24 24">
  <path fill="#F5F5F5" d="M12.5 3a8.5 8.5 0 1 0 8.5 8.5h-1A7.5 7.5 0 1 1 12.5 4V3Z" opacity=".4"/>
  <path fill="#E0E0E0" d="M15 3h-1v1h1v1h1V4h1V3h-1V2h-1v1Zm4 4h-2v1h2v2h1V8h2V7h-2V5h-1v2Zm-9 2.5a2.5 2.5 0 0 1 5 0v.172a2.5 2.5 0 0 1-.732 1.767l-.829.829a1.5 1.5 0 0 0-.439 1.06v.172h-1v-.172a2.5 2.5 0 0 1 .732-1.767l.829-.829A1.5 1.5 0 0 0 14 9.672V9.5a1.5 1.5 0 0 0-3 0v.5h-1v-.5Zm3.25 6a.75.75 0 1 1-1.5 0 .75.75 0 0 1 1.5 0Z"/>
</svg>
