<svg xmlns="http://www.w3.org/2000/svg" width="16" height="16" fill="none" viewBox="0 0 16 16">
  <path fill="#F5F5F5" fill-rule="evenodd" d="M7.293 8 5.646 6.354l.708-.708L8 7.293l1.646-1.647.708.708L8.707 8l1.647 1.646-.708.708L8 8.707l-1.646 1.647-.708-.708L7.293 8Z" clip-rule="evenodd"/>
  <path fill="#F5F5F5" d="M6 3H3v10h3v-1.5h1V13a1 1 0 0 1-1 1H3a1 1 0 0 1-1-1V3a1 1 0 0 1 1-1h3a1 1 0 0 1 1 1v1.5H6V3Zm3 8.5V13a1 1 0 0 0 1 1h3a1 1 0 0 0 1-1V3a1 1 0 0 0-1-1h-3a1 1 0 0 0-1 1v1.5h1V3h3v10h-3v-1.5H9Z" opacity=".4"/>
</svg>
