<svg xmlns="http://www.w3.org/2000/svg" width="16" height="16" fill="none" viewBox="0 0 16 16">
  <path fill="#E8E8E8" fill-rule="evenodd" d="M3.757 8H3a1 1 0 0 0-1 1v4a1 1 0 0 0 1 1h8c-.768 0-1.47-.289-2-.764v.007l-.12-.12-.002-.003-.12-.12H3V9h1.757l-1-1Z" clip-rule="evenodd" opacity=".4"/>
  <path fill="#F5F5F5" fill-rule="evenodd" d="M11 13a2 2 0 0 1-2-2V3h4v8a2 2 0 0 1-2 2ZM8 3a1 1 0 0 1 1-1h4a1 1 0 0 1 1 1v8a3 3 0 0 1-5 2.236v.007L3.222 7.464a1 1 0 0 1 0-1.414L6.05 3.222a1 1 0 0 1 1.414 0L8 3.758V3Zm0 2.172v5.657L3.929 6.757 6.757 3.93 8 5.172ZM11 12a1 1 0 1 0 0-2 1 1 0 0 0 0 2Z" clip-rule="evenodd"/>
</svg>
